<?xml version="1.0" encoding="iso-8859-1"?>
<!-- Generator: Adobe Illustrator 19.0.0, SVG Export Plug-In . SVG Version: 6.00 Build 0)  -->
<svg xmlns="http://www.w3.org/2000/svg" xmlns:xlink="http://www.w3.org/1999/xlink" version="1.1" id="Layer_1" x="0px" y="0px" viewBox="0 0 511.999 511.999" style="enable-background:new 0 0 511.999 511.999;" xml:space="preserve" width="512px" height="512px">
<g>
	<g>
		<path d="M457.935,242.126v-9.137h-30.42v-0.001H102.757h-30.42v9.137c0,48.261,23.385,91.16,59.415,117.97l-9.74,30.503    c-2.311-0.268-4.655-0.42-7.036-0.42c-33.586,0-60.911,27.324-60.911,60.91c0,33.586,27.325,60.91,60.911,60.91    c33.586,0,60.91-27.324,60.91-60.91c0-1.014-0.027-2.022-0.077-3.024h218.859l17.044,53.353l28.977-9.257l-42.185-132.053    C434.543,333.299,457.935,290.394,457.935,242.126z M114.975,467.305c-8.941,0-16.217-7.275-16.217-16.217    c0-8.941,7.274-16.217,16.217-16.217c8.941,0,16.217,7.275,16.217,16.217C131.192,460.03,123.917,467.305,114.975,467.305z     M165.847,417.645c-4.118-6.243-9.353-11.681-15.418-16.038l8.187-25.638c18.51,8.427,39.062,13.126,60.691,13.126h91.658    c21.622,0,42.168-4.696,60.674-13.118l13.311,41.668H165.847z" fill="#915919"/>
	</g>
</g>
<g>
	<g>
		<path d="M322.595,46.921V0H207.677v46.921c-75.623,5.949-135.34,69.385-135.34,146.51v9.137h30.42h324.759h30.42v-9.137    C457.935,116.305,398.218,52.869,322.595,46.921z" fill="#915919"/>
	</g>
</g>
<g>
</g>
<g>
</g>
<g>
</g>
<g>
</g>
<g>
</g>
<g>
</g>
<g>
</g>
<g>
</g>
<g>
</g>
<g>
</g>
<g>
</g>
<g>
</g>
<g>
</g>
<g>
</g>
<g>
</g>
</svg>
