<?xml version="1.0" encoding="iso-8859-1"?>
<!-- Generator: Adobe Illustrator 18.0.0, SVG Export Plug-In . SVG Version: 6.00 Build 0)  -->
<!DOCTYPE svg PUBLIC "-//W3C//DTD SVG 1.1//EN" "http://www.w3.org/Graphics/SVG/1.1/DTD/svg11.dtd">
<svg xmlns="http://www.w3.org/2000/svg" xmlns:xlink="http://www.w3.org/1999/xlink" version="1.1" id="Capa_1" x="0px" y="0px" viewBox="0 0 60 60" style="enable-background:new 0 0 60 60;" xml:space="preserve" width="512px" height="512px">
<g>
	<path d="M52.939,19.625c0.051-0.675-0.185-1.347-0.646-1.844C51.832,17.285,51.181,17,50.504,17H9.496   c-0.677,0-1.328,0.285-1.789,0.781c-0.462,0.497-0.697,1.169-0.646,1.844c0.512,6.878,4.243,12.99,9.59,16.903L8.177,55.524   c-0.26,0.612-0.265,1.292-0.014,1.912c0.25,0.62,0.726,1.104,1.339,1.365c0.31,0.131,0.637,0.197,0.973,0.197   c1.008,0,1.913-0.597,2.298-1.505l3.861-8.655c3.065,0.879,6.61,1.424,10.367,1.594V57.5c0,1.379,1.121,2.5,2.5,2.5   s2.5-1.121,2.5-2.5v-7.072c3.737-0.169,7.281-0.716,10.362-1.6l3.858,8.65c0.393,0.925,1.298,1.521,2.306,1.521   c0.336,0,0.663-0.066,0.973-0.197c1.27-0.539,1.863-2.01,1.317-3.294L42.59,37.067C48.344,33.192,52.403,26.825,52.939,19.625z    M17.455,46.996l3.544-7.946c1.897,0.842,3.911,1.425,6.001,1.717v7.665C23.543,48.269,20.284,47.781,17.455,46.996z M41.54,46.985   c-2.843,0.789-6.1,1.28-9.54,1.441v-7.527c2.137-0.198,4.206-0.71,6.162-1.487L41.54,46.985z" fill="#FFDA44"/>
	<path d="M11.96,12.707C12.155,12.902,12.411,13,12.667,13s0.512-0.098,0.707-0.293c0.391-0.39,0.391-1.023,0-1.414   c-0.518-0.518-0.493-1.385,0.053-1.932c0.648-0.647,0.998-1.42,1.011-2.233c0.013-0.813-0.328-1.61-0.962-2.243   c-0.391-0.391-1.023-0.391-1.414,0s-0.391,1.023,0,1.414c0.175,0.175,0.382,0.455,0.376,0.798   c-0.004,0.283-0.151,0.577-0.425,0.851C10.687,9.274,10.663,11.409,11.96,12.707z" fill="#FFDA44"/>
	<path d="M47.522,12.707C47.718,12.902,47.974,13,48.229,13s0.512-0.098,0.707-0.293c0.391-0.391,0.391-1.023,0-1.414   c-0.518-0.518-0.494-1.385,0.053-1.932c0.648-0.647,0.998-1.42,1.011-2.233s-0.329-1.61-0.963-2.243   c-0.391-0.391-1.023-0.391-1.414,0s-0.391,1.023,0,1.414C47.798,6.474,48.005,6.754,48,7.097c-0.005,0.283-0.151,0.577-0.425,0.851   C46.248,9.274,46.225,11.409,47.522,12.707z" fill="#FFDA44"/>
	<path d="M20.195,12.707C20.391,12.902,20.646,13,20.902,13s0.512-0.098,0.707-0.293c0.391-0.391,0.391-1.023,0-1.414   c-0.902-0.902-0.869-2.406,0.075-3.351C22.528,7.1,22.983,6.101,23,5.056c0.017-1.059-0.414-2.057-1.246-2.889   c-0.391-0.391-1.023-0.391-1.414,0s-0.391,1.023,0,1.414c0.439,0.44,0.668,0.938,0.66,1.442c-0.008,0.516-0.261,1.036-0.729,1.505   C18.547,8.253,18.513,11.025,20.195,12.707z" fill="#FFDA44"/>
	<path d="M38.243,12.707C38.438,12.902,38.694,13,38.95,13s0.512-0.098,0.707-0.293c0.391-0.391,0.391-1.023,0-1.414   c-0.902-0.902-0.869-2.406,0.075-3.351c0.844-0.843,1.299-1.842,1.315-2.887c0.017-1.059-0.414-2.057-1.246-2.889   c-0.391-0.391-1.023-0.391-1.414,0s-0.391,1.023,0,1.414c0.439,0.44,0.668,0.938,0.66,1.442c-0.008,0.516-0.261,1.036-0.729,1.505   C36.595,8.253,36.561,11.025,38.243,12.707z" fill="#FFDA44"/>
	<path d="M28.674,12.707C28.869,12.902,29.125,13,29.381,13s0.512-0.098,0.707-0.293c0.391-0.391,0.391-1.023,0-1.414   c-0.578-0.579-0.897-1.348-0.897-2.164s0.319-1.585,0.897-2.164c1.964-1.965,1.964-4.708,0-6.672c-0.391-0.391-1.023-0.391-1.414,0   s-0.391,1.023,0,1.414c1.203,1.203,1.203,2.64,0,3.844C26.701,7.523,26.701,10.734,28.674,12.707z" fill="#FFDA44"/>
	<path d="M56.5,11.5c-1.58,0-2.903,1.059-3.337,2.5H6.837C6.403,12.559,5.08,11.5,3.5,11.5C1.57,11.5,0,13.07,0,15s1.57,3.5,3.5,3.5   c1.58,0,2.903-1.059,3.337-2.5h46.326c0.434,1.441,1.757,2.5,3.337,2.5c1.93,0,3.5-1.57,3.5-3.5S58.43,11.5,56.5,11.5z" fill="#FFDA44"/>
</g>
<g>
</g>
<g>
</g>
<g>
</g>
<g>
</g>
<g>
</g>
<g>
</g>
<g>
</g>
<g>
</g>
<g>
</g>
<g>
</g>
<g>
</g>
<g>
</g>
<g>
</g>
<g>
</g>
<g>
</g>
</svg>
